
<svg width="305px" height="320px" viewBox="0 0 305 320" version="1.1" xmlns="http://www.w3.org/2000/svg" xmlns:xlink="http://www.w3.org/1999/xlink">
    <defs></defs>
    <g id="Page-1" stroke="none" stroke-width="1" fill="none" fill-rule="evenodd">
        <g id="Logo-Simple-White" fill="#FFFFFF">
            <g id="Group">
                <path d="M129.465649,236.699971 C126.944622,235.277954 116.984622,230.10687 105.433781,230.10687 C92.0451348,230.10687 80.7713431,237.065703 80.7713431,237.065703 C80.7713431,237.065703 78.6564885,239.386553 78.6564885,250.522173 C78.6564885,255.230822 79.036335,258.350085 79.4725942,260.396947 C105.636867,254.043122 120.923492,244.333238 129.465649,236.699971" id="Fill-1"></path>
                <path d="M155.716543,220.763754 L159.899545,220.761262 L162.22454,209.099237 L151.533541,209.099237 L151.43915,209.099237 L140.749393,209.099237 L143.073145,220.761262 L147.256148,220.529492 C147.256148,220.529492 137.820795,254.683189 71.8167939,267.973835 C71.8167939,267.973835 83.5026219,318.753924 146.843809,320 L153.053729,320 C218.878884,318.753924 229.618321,268.092212 229.618321,268.092212 C163.615562,254.80032 155.716543,220.763754 155.716543,220.763754" id="Fill-3"></path>
                <path d="M206.910429,88.6698913 C206.910429,57.9548596 181.920517,32.9674337 151.205485,32.9674337 C120.490454,32.9674337 95.5017849,57.9548596 95.5017849,88.6698913 C95.5017849,119.386166 120.490454,144.376078 151.205485,144.376078 C181.920517,144.376078 206.910429,119.386166 206.910429,88.6698913 L206.910429,88.6698913 Z M209.587786,88.6698913 C209.587786,120.862814 183.397165,147.053435 151.205485,147.053435 C119.013805,147.053435 92.8244275,120.862814 92.8244275,88.6698913 C92.8244275,56.4782113 119.013805,30.2900763 151.205485,30.2900763 C183.397165,30.2900763 209.587786,56.4782113 209.587786,88.6698913 L209.587786,88.6698913 Z M195.153176,64.6432812 C195.368209,66.2380117 195.490021,67.9495814 195.490021,69.7929059 C195.490021,74.8729243 194.539148,80.5868574 191.68156,87.7314489 L176.384329,131.958807 C191.273866,123.277905 201.287233,107.14664 201.287233,88.6698913 C201.287233,79.9628864 199.062316,71.776686 195.153176,64.6432812 L195.153176,64.6432812 Z M152.085508,93.0513605 L137.056758,136.714411 C141.545123,138.034445 146.289539,138.755367 151.205485,138.755367 C157.037501,138.755367 162.632109,137.748562 167.837667,135.916424 C167.704669,135.70139 167.580372,135.473927 167.478449,135.226576 L152.085508,93.0513605 Z M185.015512,86.1441762 C185.015512,79.9516997 182.790596,75.6671821 180.886366,72.3322936 C178.348221,68.2043902 175.966691,64.7128875 175.966691,60.5849841 C175.966691,55.9822662 179.456951,51.6965057 184.376626,51.6965057 C184.599117,51.6965057 184.809179,51.723851 185.025456,51.7375237 C176.115847,43.5724538 164.244241,38.5881441 151.205485,38.5881441 C133.708197,38.5881441 118.316499,47.5661164 109.3609,61.1617222 C110.53675,61.1990113 111.644236,61.2213848 112.583922,61.2213848 C117.821797,61.2213848 125.932176,60.5849841 125.932176,60.5849841 C128.630664,60.4271269 128.948865,64.3934442 126.252863,64.7128875 C126.252863,64.7128875 123.538216,65.0298449 120.520285,65.188945 L138.757141,119.438371 L149.718893,86.568029 L141.916771,65.188945 C139.218283,65.0298449 136.663979,64.7128875 136.663979,64.7128875 C133.964249,64.5525444 134.281206,60.4271269 136.980937,60.5849841 C136.980937,60.5849841 145.250416,61.2213848 150.171334,61.2213848 C155.407967,61.2213848 163.520832,60.5849841 163.520832,60.5849841 C166.220563,60.4271269 166.538763,64.3934442 163.840275,64.7128875 C163.840275,64.7128875 161.123143,65.0298449 158.107698,65.188945 L176.207827,119.024462 L181.204566,102.33386 C183.366091,95.4043027 185.015512,90.4299368 185.015512,86.1441762 L185.015512,86.1441762 Z M101.123738,88.6698913 C101.123738,108.492777 112.642341,125.625875 129.350344,133.742469 L105.46046,68.2876692 C102.68118,74.5161919 101.123738,81.4084605 101.123738,88.6698913 L101.123738,88.6698913 Z" id="Fill-5"></path>
                <path d="M224.347198,260.885496 C224.807291,258.836581 225.221374,255.617925 225.221374,250.642166 C225.221374,239.441096 223.1236,237.107851 223.1236,237.107851 C223.1236,237.107851 211.940859,230.10687 198.660345,230.10687 C186.401982,230.10687 175.951659,236.059076 174.412214,236.97691 C182.794606,244.694949 197.973936,254.525503 224.347198,260.885496" id="Fill-7"></path>
                <path d="M303.362777,26.2459094 L297.505525,25.951382 C298.049546,39.3343585 298.018424,76.6709861 283.136896,121.60816 C264.826914,176.899774 246.1223,206.089053 239.06621,215.87805 C231.693915,212.139913 215.674549,203.955283 192.144704,191.747931 C165.297202,177.819395 157.018621,167.933465 156.973805,167.881271 L152.229493,161.53464 L147.252385,167.835289 C147.172711,167.933465 138.876701,177.819395 112.029199,191.747931 C88.5005995,203.95404 72.4426414,212.13867 65.0703468,215.87805 C58.0080321,206.079111 39.2287238,176.891075 20.9212323,121.60816 C5.83927534,76.0632904 5.85047944,38.304134 6.42064339,25.4045802 L0.166268501,25.6916511 C-0.426303642,39.581662 -0.240813622,77.4974026 15.0129395,123.558006 C38.8340907,195.494766 63.2677324,223.755725 63.2677324,223.755725 C63.2677324,223.755725 81.4046726,214.639046 114.902427,197.260688 C143.757952,182.290743 152.107493,171.73001 152.107493,171.73001 C152.107493,171.73001 160.457033,182.290743 189.312558,197.260688 C222.810313,214.639046 240.947253,223.755725 240.947253,223.755725 C240.947253,223.755725 265.06967,195.494766 288.890821,123.558006 C304.672411,75.902978 303.362777,26.2459094 303.362777,26.2459094" id="Fill-9"></path>
                <polygon id="Fill-11" points="153.672882 3.42022112 153.672882 0 147.445877 0 147.445877 3.42022112 0.488549618 10.214562 0.488549618 19.5419847 152.427481 12.5470407 304.366412 19.5419847 304.366412 10.214562"></polygon>
            </g>
        </g>
    </g>
</svg>