
<svg width="556px" height="535px" viewBox="0 0 556 535" version="1.1" xmlns="http://www.w3.org/2000/svg" xmlns:xlink="http://www.w3.org/1999/xlink">
    <defs></defs>
    <g id="Page-1" stroke="none" stroke-width="1" fill="none" fill-rule="evenodd">
        <g id="Logo-Text-White" fill="#FFFFFF">
            <path d="M0,56.64 L27.52,0 L30.72,1.6 L3.264,58.048 L0,56.64 Z M42.752,13.376 L46.976,13.376 L46.848,26.56 L59.328,22.464 L60.608,26.304 L48.064,30.336 L55.872,40.96 L52.544,43.392 L44.864,32.576 L37.184,43.392 L33.856,40.96 L41.664,30.336 L29.12,26.304 L30.4,22.464 L42.88,26.56 L42.752,13.376 Z M78.528,13.376 L82.752,13.376 L82.624,26.56 L95.104,22.464 L96.384,26.304 L83.84,30.336 L91.648,40.96 L88.32,43.392 L80.64,32.576 L72.96,43.392 L69.632,40.96 L77.44,30.336 L64.896,26.304 L66.176,22.464 L78.656,26.56 L78.528,13.376 Z M47.028,91.912 L51.252,91.912 L51.124,105.096 L63.604,101 L64.884,104.84 L52.34,108.872 L60.148,119.496 L56.82,121.928 L49.14,111.112 L41.46,121.928 L38.132,119.496 L45.94,108.872 L33.396,104.84 L34.676,101 L47.156,105.096 L47.028,91.912 Z M143.692,84.68 L139.724,84.68 L133.58,123.4 L128.012,89.8 L121.932,89.8 L116.108,123.4 L110.476,84.68 L106.188,84.68 L112.78,128.648 L119.18,128.648 L124.748,94.92 L130.316,128.648 L136.524,128.648 L143.692,84.68 Z M162.904,94.408 C172.12,94.408 176.728,101.256 176.728,111.816 C176.728,121.864 171.992,129.288 162.84,129.288 C153.624,129.288 148.952,122.248 148.952,111.88 C148.952,101.64 153.688,94.408 162.904,94.408 Z M162.904,97.928 C156.632,97.928 153.304,102.408 153.304,111.88 C153.304,121.224 156.504,125.768 162.84,125.768 C169.176,125.768 172.376,121.224 172.376,111.816 C172.376,102.408 169.176,97.928 162.904,97.928 Z M210.34,94.408 C204.068,94.408 200.74,97.672 198.116,103.112 L197.348,95.048 L188.836,95.048 L188.836,98.376 L194.34,98.376 L194.34,125.32 L188.836,125.32 L188.836,128.648 L205.22,128.648 L205.22,125.32 L198.308,125.32 L198.308,109.704 C200.676,101.768 204.452,98.184 209.828,98.184 L210.66,98.184 L210.596,99.016 L210.596,105.608 L214.436,105.608 L214.884,95.048 C213.348,94.664 212.068,94.408 210.34,94.408 Z M246.896,80.904 L250.864,81.416 L250.864,128.648 L247.408,128.648 L246.896,124.04 C244.208,127.816 240.752,129.288 237.296,129.288 C228.336,129.288 224.304,122.248 224.304,111.944 C224.304,101.896 229.168,94.408 237.424,94.408 C241.584,94.408 244.528,95.88 246.896,98.696 L246.896,80.904 Z M238.448,97.864 C232.24,97.864 228.784,102.6 228.784,111.88 C228.784,120.776 231.792,125.832 237.744,125.832 C242.032,125.832 244.912,123.016 246.896,120.072 L246.896,102.664 C244.912,99.656 241.904,97.864 238.448,97.864 Z M280.252,84.04 C270.524,84.04 261.948,91.784 261.948,106.632 C261.948,121.352 270.268,129.288 280.572,129.288 C286.716,129.288 290.748,127.24 293.244,124.808 L290.94,121.928 C288.636,123.784 285.564,125.512 280.508,125.512 C272.572,125.512 266.236,120.52 266.236,106.632 C266.236,92.424 273.02,87.816 280.7,87.816 C284.028,87.816 287.164,88.584 290.108,91.08 L292.604,88.2 C289.148,85.512 285.82,84.04 280.252,84.04 Z M325.064,121.992 C325.064,124.744 325.96,125.832 327.944,126.408 L326.856,129.352 C324.296,128.968 322.12,127.56 321.352,124.488 C318.984,127.624 315.4,129.288 310.984,129.288 C304.264,129.288 300.296,125.256 300.296,118.984 C300.296,112.136 305.736,108.36 315.848,108.36 L320.904,108.36 L320.904,105.16 C320.904,99.848 317.704,97.992 312.52,97.992 C310.28,97.992 307.4,98.504 303.944,99.72 L302.728,96.456 C306.824,94.984 309.96,94.408 313.096,94.408 C320.968,94.408 325.064,98.632 325.064,104.968 L325.064,121.992 Z M311.688,126.152 C315.4,126.152 318.728,124.232 320.904,121.032 L320.904,111.432 L315.336,111.432 C307.4,111.432 304.648,114.44 304.648,119.112 C304.648,123.784 306.888,126.152 311.688,126.152 Z M361.492,94.408 C357.908,94.408 355.86,96.264 354.068,99.016 C352.98,95.368 350.292,94.408 347.732,94.408 C344.212,94.408 342.036,96.584 340.308,99.144 L340.052,95.048 L336.852,95.048 L336.852,128.648 L340.628,128.648 L340.628,102.152 C342.676,98.888 344.852,97.544 347.22,97.544 C349.972,97.544 350.1,99.592 350.1,104.392 L350.1,128.648 L354.516,128.648 L354.516,102.152 C356.5,98.888 358.804,97.544 361.108,97.544 C363.86,97.544 363.988,99.592 363.988,104.392 L363.988,128.648 L367.828,128.648 L367.828,103.56 C367.828,95.624 364.244,94.408 361.492,94.408 Z M392.032,94.408 C400.992,94.408 404.128,101.384 404.128,111.816 C404.128,121.992 400.096,129.288 391.2,129.288 C387.36,129.288 384.352,127.944 381.984,125.32 L381.984,141.512 L378.016,142.024 L378.016,95.048 L381.344,95.048 L381.792,99.976 C384.16,96.584 387.68,94.408 392.032,94.408 Z M391.264,97.864 C387.168,97.864 383.968,100.872 381.984,103.688 L381.984,121.096 C383.904,123.848 387.04,125.64 390.56,125.64 C396.704,125.64 399.776,121.16 399.776,111.752 C399.776,102.856 397.216,97.864 391.264,97.864 Z M47.028,183.912 L51.252,183.912 L51.124,197.096 L63.604,193 L64.884,196.84 L52.34,200.872 L60.148,211.496 L56.82,213.928 L49.14,203.112 L41.46,213.928 L38.132,211.496 L45.94,200.872 L33.396,196.84 L34.676,193 L47.156,197.096 L47.028,183.912 Z M142.604,190.76 C142.604,201.064 135.5,205.864 125.068,205.864 L120.204,205.864 L120.204,220.648 L109.708,220.648 L109.708,176.296 L123.66,176.296 C135.756,176.296 142.604,181.032 142.604,190.76 Z M131.852,190.76 C131.852,186.024 129.164,183.784 123.852,183.784 L120.204,183.784 L120.204,198.312 L124.364,198.312 C129.036,198.312 131.852,196.008 131.852,190.76 Z M162.84,185.512 C173.336,185.512 179.352,192.68 179.352,203.56 C179.352,214.952 173.272,221.736 162.84,221.736 C152.408,221.736 146.328,215.08 146.328,203.624 C146.328,192.808 152.408,185.512 162.84,185.512 Z M162.84,193 C158.68,193 156.76,196.2 156.76,203.624 C156.76,211.176 158.68,214.312 162.84,214.312 C167,214.312 168.92,211.176 168.92,203.56 C168.92,196.2 167,193 162.84,193 Z M211.94,185.64 C206.5,185.64 202.788,188.456 200.356,194.28 L198.564,186.664 L186.34,186.664 L186.34,193.384 L190.82,193.384 L190.82,213.864 L186.34,213.864 L186.34,220.648 L207.652,220.648 L207.652,213.864 L200.932,213.864 L200.932,204.136 C202.468,199.08 205.476,195.304 209.316,194.664 L209.316,200.872 L215.716,200.872 L217.572,186.664 C215.972,186.024 214.244,185.64 211.94,185.64 Z M254.512,218.664 L251.184,212.2 C249.584,213.096 247.6,213.736 245.232,213.736 C241.84,213.736 240.368,212.456 240.368,209.064 L240.368,193.64 L250.288,193.64 L251.312,186.664 L240.368,186.664 L240.368,178.088 L230.256,179.304 L230.256,186.664 L223.152,186.664 L223.152,193.64 L230.256,193.64 L230.256,209.064 C230.256,216.872 234.48,221.736 243.376,221.736 C248.048,221.736 251.824,220.392 254.512,218.664 Z M276.54,185.512 C287.036,185.512 293.052,192.68 293.052,203.56 C293.052,214.952 286.972,221.736 276.54,221.736 C266.108,221.736 260.028,215.08 260.028,203.624 C260.028,192.808 266.108,185.512 276.54,185.512 Z M276.54,193 C272.38,193 270.46,196.2 270.46,203.624 C270.46,211.176 272.38,214.312 276.54,214.312 C280.7,214.312 282.62,211.176 282.62,203.56 C282.62,196.2 280.7,193 276.54,193 Z M320.328,215.016 L320.328,176.488 L313.992,176.488 L300.424,184.808 L303.496,189.8 L313.224,183.848 L313.224,215.016 L302.472,215.016 L302.472,220.648 L329.16,220.648 L329.16,215.016 L320.328,215.016 Z M366.1,186.984 C366.1,191.272 363.604,194.152 358.804,196.84 C364.628,199.464 367.892,203.496 367.892,208.744 C367.892,215.848 362.132,221.48 352.212,221.48 C342.228,221.48 336.788,215.848 336.788,208.936 C336.788,203.624 340.116,199.912 345.364,197.544 C340.692,195.112 338.58,192.296 338.58,187.368 C338.58,179.496 345.556,175.592 352.34,175.592 C359.636,175.592 366.1,179.432 366.1,186.984 Z M345.492,187.432 C345.492,191.784 348.564,193.192 353.94,195.048 C357.588,192.808 359.188,190.76 359.188,187.368 C359.188,183.4 356.756,180.84 352.34,180.84 C347.988,180.84 345.492,183.208 345.492,187.432 Z M360.532,208.808 C360.532,203.432 356.564,201.832 349.972,199.528 C346.772,201.192 344.148,203.944 344.148,208.68 C344.148,213.16 346.9,216.04 352.276,216.04 C357.78,216.04 360.532,212.84 360.532,208.808 Z M47.028,260.912 L51.252,260.912 L51.124,274.096 L63.604,270 L64.884,273.84 L52.34,277.872 L60.148,288.496 L56.82,290.928 L49.14,280.112 L41.46,290.928 L38.132,288.496 L45.94,277.872 L33.396,273.84 L34.676,270 L47.156,274.096 L47.028,260.912 Z M47.028,337.912 L51.252,337.912 L51.124,351.096 L63.604,347 L64.884,350.84 L52.34,354.872 L60.148,365.496 L56.82,367.928 L49.14,357.112 L41.46,367.928 L38.132,365.496 L45.94,354.872 L33.396,350.84 L34.676,347 L47.156,351.096 L47.028,337.912 Z M119.244,334.328 L139.66,334.328 L140.172,330.68 L115.148,330.68 L115.148,374.648 L119.244,374.648 L119.244,354.424 L137.036,354.424 L137.036,350.904 L119.244,350.904 L119.244,334.328 Z M156.376,334.328 L175.64,334.328 L176.152,330.68 L152.28,330.68 L152.28,374.648 L176.92,374.648 L176.92,371.064 L156.376,371.064 L156.376,354.168 L173.016,354.168 L173.016,350.456 L156.376,350.456 L156.376,334.328 Z M214.756,330.68 L210.596,330.68 L210.596,361.976 C210.596,368.312 206.628,371.384 200.676,371.384 C194.788,371.384 190.82,368.312 190.82,361.976 L190.82,330.68 L186.724,330.68 L186.724,360.568 C186.724,369.272 192.164,375.288 200.676,375.288 C208.932,375.288 214.756,369.464 214.756,360.568 L214.756,330.68 Z M254.704,343.928 C254.704,354.232 247.6,357.816 237.872,357.816 L231.92,357.816 L231.92,374.648 L227.888,374.648 L227.888,330.68 L238.256,330.68 C248.368,330.68 254.704,334.84 254.704,343.928 Z M250.224,343.992 C250.224,336.568 245.296,334.136 239.152,334.136 L231.92,334.136 L231.92,354.296 L238.704,354.296 C245.232,354.296 250.224,352.248 250.224,343.992 Z M47.028,414.912 L51.252,414.912 L51.124,428.096 L63.604,424 L64.884,427.84 L52.34,431.872 L60.148,442.496 L56.82,444.928 L49.14,434.112 L41.46,444.928 L38.132,442.496 L45.94,431.872 L33.396,427.84 L34.676,424 L47.156,428.096 L47.028,414.912 Z M128.78,448.256 L128.78,407.68 L125.324,407.68 L112.524,415.616 L114.316,418.496 L124.684,412.288 L124.684,448.256 L113.804,448.256 L113.804,451.648 L138.188,451.648 L138.188,448.256 L128.78,448.256 Z M175.576,418.112 C175.576,422.464 172.632,425.472 167.704,428.16 C173.4,430.336 177.432,434.368 177.432,439.872 C177.432,447.232 171.48,452.288 162.712,452.288 C153.688,452.288 148.248,446.976 148.248,439.936 C148.248,434.432 151.832,430.912 157.336,428.352 C152.6,426.304 150.104,423.296 150.104,418.368 C150.104,410.112 157.784,407.04 162.84,407.04 C168.536,407.04 175.576,410.112 175.576,418.112 Z M154.072,418.432 C154.072,424.064 158.296,425.088 164.76,427.136 C169.176,424.768 171.608,422.656 171.608,418.24 C171.608,413.44 168.344,410.432 162.84,410.432 C157.336,410.432 154.072,413.44 154.072,418.432 Z M173.08,440 C173.08,433.6 167.512,432 160.28,429.504 C156.312,431.168 152.6,434.048 152.6,440.128 C152.6,445.568 155.992,448.768 162.648,448.768 C169.304,448.768 173.08,445.056 173.08,440 Z M229.36,436.416 C229.488,444.864 234.224,448.64 239.664,448.64 C243.184,448.64 245.68,447.616 248.752,445.568 L250.8,448.512 C247.728,450.88 243.568,452.288 239.856,452.288 C230.576,452.288 225.072,445.312 225.072,434.88 C225.072,424.64 230.768,417.408 239.216,417.408 C247.408,417.408 252.272,423.68 252.272,433.728 C252.272,434.88 252.208,435.776 252.208,436.416 L229.36,436.416 Z M239.344,421.12 C233.904,421.12 229.872,424.96 229.424,432.896 L248.496,432.896 C248.304,424.96 244.656,421.12 239.344,421.12 Z M318.28,448.256 L318.28,407.68 L314.824,407.68 L302.024,415.616 L303.816,418.496 L314.184,412.288 L314.184,448.256 L303.304,448.256 L303.304,451.648 L327.688,451.648 L327.688,448.256 L318.28,448.256 Z M351.508,407.168 C361.044,407.168 365.332,413.44 365.332,423.936 C365.332,443.328 358.74,448 342.932,452.8 L341.908,449.6 C353.94,446.4 361.492,441.152 361.044,429.376 L361.108,427.136 L360.916,429.504 C359.316,432.32 355.604,435.136 350.484,435.264 C343.06,435.328 337.812,430.08 337.812,421.248 C337.812,411.776 343.956,407.168 351.508,407.168 Z M350.804,431.744 C355.54,431.68 358.74,428.864 361.172,424.64 C361.364,413.888 357.908,410.688 351.572,410.688 C345.236,410.688 342.036,414.464 342.036,421.568 C342.036,428.672 345.236,431.872 350.804,431.744 Z M442.668,407.68 L435.756,407.68 L428.268,438.272 L420.46,407.68 L413.612,407.68 L411.116,451.648 L415.212,451.648 L416.684,427.328 C417.004,422.272 417.004,413.056 416.94,411.584 L425.708,443.648 L430.572,443.648 L438.7,411.584 C438.828,412.672 438.956,421.568 439.34,427.392 L440.94,451.648 L445.164,451.648 L442.668,407.68 Z M476.664,444.992 C476.664,447.744 477.56,448.832 479.544,449.408 L478.456,452.352 C475.896,451.968 473.72,450.56 472.952,447.488 C470.584,450.624 467,452.288 462.584,452.288 C455.864,452.288 451.896,448.256 451.896,441.984 C451.896,435.136 457.336,431.36 467.448,431.36 L472.504,431.36 L472.504,428.16 C472.504,422.848 469.304,420.992 464.12,420.992 C461.88,420.992 459,421.504 455.544,422.72 L454.328,419.456 C458.424,417.984 461.56,417.408 464.696,417.408 C472.568,417.408 476.664,421.632 476.664,427.968 L476.664,444.992 Z M463.288,449.152 C467,449.152 470.328,447.232 472.504,444.032 L472.504,434.432 L466.936,434.432 C459,434.432 456.248,437.44 456.248,442.112 C456.248,446.784 458.488,449.152 463.288,449.152 Z M503.94,402.88 C502.02,402.88 500.74,404.224 500.74,406.016 C500.74,407.936 502.02,409.28 503.94,409.28 C505.988,409.28 507.332,407.936 507.332,406.016 C507.332,404.224 505.988,402.88 503.94,402.88 Z M507.716,418.048 L493.444,418.048 L493.444,421.504 L503.748,421.504 L503.748,448.192 L493.124,448.192 L493.124,451.648 L517.444,451.648 L517.444,448.192 L507.716,448.192 L507.716,418.048 Z M541.904,417.408 C551.12,417.408 555.728,424.256 555.728,434.816 C555.728,444.864 550.992,452.288 541.84,452.288 C532.624,452.288 527.952,445.248 527.952,434.88 C527.952,424.64 532.688,417.408 541.904,417.408 Z M541.904,420.928 C535.632,420.928 532.304,425.408 532.304,434.88 C532.304,444.224 535.504,448.768 541.84,448.768 C548.176,448.768 551.376,444.224 551.376,434.816 C551.376,425.408 548.176,420.928 541.904,420.928 Z M66.368,533.64 L93.888,477 L97.088,478.6 L69.632,535.048 L66.368,533.64 Z M48.832,490.376 L53.056,490.376 L52.928,503.56 L65.408,499.464 L66.688,503.304 L54.144,507.336 L61.952,517.96 L58.624,520.392 L50.944,509.576 L43.264,520.392 L39.936,517.96 L47.744,507.336 L35.2,503.304 L36.48,499.464 L48.96,503.56 L48.832,490.376 Z" id="/**-*-WordCamp-*-Por"></path>
        </g>
    </g>
</svg>