
<svg width="623px" height="655px" viewBox="0 0 623 655" version="1.1" xmlns="http://www.w3.org/2000/svg" xmlns:xlink="http://www.w3.org/1999/xlink">
    <defs></defs>
    <g id="Page-1" stroke="none" stroke-width="1" fill="none" fill-rule="evenodd">
        <g id="Logo-Simple">
            <path d="M265,484.495252 C259.839773,481.584561 239.452899,471 215.809771,471 C188.404885,471 165.328843,485.243861 165.328843,485.243861 C165.328843,485.243861 161,489.994352 161,512.787574 C161,522.425589 161.777498,528.810331 162.670466,533 C216.225463,519.994515 247.515273,500.119597 265,484.495252" id="Fill-1" fill="#CC9900"></path>
            <path d="M318.732299,451.875809 L327.294382,451.870708 L332.053354,428 L310.170216,428 L309.97701,428 L288.096414,428 L292.852844,451.870708 L301.414927,451.396303 C301.414927,451.396303 282.101939,521.304652 147,548.508944 C147,548.508944 170.919429,652.449438 300.570921,655 L313.281852,655 C448.017717,652.449438 470,548.751247 470,548.751247 C334.900603,521.544404 318.732299,451.875809 318.732299,451.875809" id="Fill-3" fill="#003377"></path>
            <path d="M423.519784,181.496184 C423.519784,118.626353 372.368558,67.4802159 309.498728,67.4802159 C246.628897,67.4802159 195.480216,118.626353 195.480216,181.496184 C195.480216,244.368558 246.628897,295.519784 309.498728,295.519784 C372.368558,295.519784 423.519784,244.368558 423.519784,181.496184 L423.519784,181.496184 Z M429,181.496184 C429,247.391073 375.391073,301 309.498728,301 C243.606383,301 190,247.391073 190,181.496184 C190,115.603839 243.606383,62 309.498728,62 C375.391073,62 429,115.603839 429,181.496184 L429,181.496184 Z M399.454156,132.316716 C399.894304,135.58093 400.143636,139.084299 400.143636,142.857354 C400.143636,153.255517 398.19732,164.951224 392.348194,179.57531 L361.036673,270.103184 C391.513695,252.334462 412.009804,219.315779 412.009804,181.496184 C412.009804,163.674033 407.455679,146.917904 399.454156,132.316716 L399.454156,132.316716 Z M311.300024,190.464504 L280.538051,279.837309 C289.725173,282.539254 299.4364,284.014893 309.498728,284.014893 C321.436134,284.014893 332.887597,281.954087 343.542725,278.20393 C343.270495,277.763783 343.016074,277.298194 342.80745,276.791897 L311.300024,190.464504 Z M378.703627,176.326361 C378.703627,163.651135 374.149501,154.881263 370.25178,148.055163 C365.056515,139.605861 360.18182,132.459192 360.18182,124.009889 C360.18182,114.588701 367.325946,105.816285 377.395906,105.816285 C377.851318,105.816285 378.281289,105.872258 378.72398,105.900244 C360.487125,89.1873663 336.18743,78.9851074 309.498728,78.9851074 C273.683965,78.9851074 242.179084,97.3618944 223.848093,125.1904 C226.25491,125.266726 228.521796,125.312522 230.445214,125.312522 C241.166491,125.312522 257.767424,124.009889 257.767424,124.009889 C263.290891,123.686775 263.942207,131.805331 258.423828,132.459192 C258.423828,132.459192 252.867286,133.107964 246.689958,133.433622 L284.018523,244.475415 L306.45586,177.193934 L290.48589,133.433622 C284.962422,133.107964 279.734083,132.459192 279.734083,132.459192 C274.208071,132.130989 274.856843,123.686775 280.382855,124.009889 C280.382855,124.009889 297.309445,125.312522 307.38195,125.312522 C318.100682,125.312522 334.706703,124.009889 334.706703,124.009889 C340.232715,123.686775 340.884031,131.805331 335.360564,132.459192 C335.360564,132.459192 329.798933,133.107964 323.626694,133.433622 L360.675396,243.628195 L370.903097,209.464621 C375.327468,195.280682 378.703627,185.098777 378.703627,176.326361 L378.703627,176.326361 Z M206.987652,181.496184 C206.987652,222.071153 230.564792,257.140463 264.763985,273.754117 L215.86438,139.776323 C210.175539,152.52533 206.987652,166.632943 206.987652,181.496184 L206.987652,181.496184 Z" id="Fill-5" fill="#003377"></path>
            <path d="M459.210671,534 C460.152423,529.806126 461,523.217941 461,513.033183 C461,490.105992 456.706118,485.330132 456.706118,485.330132 C456.706118,485.330132 433.816446,471 406.632893,471 C381.541557,471 360.151052,483.18342 357,485.062113 C374.157709,500.859973 405.2279,520.981889 459.210671,534" id="Fill-7" fill="#CC9900"></path>
            <path d="M620.945684,53.7220959 L608.956622,53.1192351 C610.070165,80.512515 610.006461,156.935925 579.545833,248.916703 C542.06759,362.091724 503.781583,421.83853 489.338648,441.875383 C474.248483,434.223885 441.458842,417.47097 393.296191,392.484045 C338.342711,363.974074 321.39749,343.738812 321.305756,343.631976 L311.594743,330.641217 L301.407225,343.537858 C301.244143,343.738812 284.263248,363.974074 229.309767,392.484045 C181.149665,417.468426 148.281032,434.221341 133.190866,441.875383 C118.735191,421.818181 80.296294,362.073918 42.8231474,248.916703 C11.9522667,155.692047 11.9752001,78.4037742 13.1422544,52 L0.340330838,52.5875984 C-0.872590267,81.0187145 -0.492915383,158.627496 30.7296105,252.907793 C79.4885293,400.15335 129.50114,458 129.50114,458 C129.50114,458 166.625189,439.339298 235.190906,403.76797 C294.254558,373.126365 311.345024,351.509865 311.345024,351.509865 C311.345024,351.509865 328.43549,373.126365 387.499142,403.76797 C456.064859,439.339298 493.188908,458 493.188908,458 C493.188908,458 542.56448,400.15335 591.323399,252.907793 C623.626342,155.363908 620.945684,53.7220959 620.945684,53.7220959" id="Fill-9" fill="#003377"></path>
            <polygon id="Fill-11" fill="#CC9900" points="314.54918 7.00076511 314.54918 0 301.803279 0 301.803279 7.00076511 1 20.9079317 1 40 312 25.6822239 623 40 623 20.9079317"></polygon>
        </g>
    </g>
</svg>