
<svg width="1140px" height="656px" viewBox="0 0 1140 656" version="1.1" xmlns="http://www.w3.org/2000/svg" xmlns:xlink="http://www.w3.org/1999/xlink">
    <defs></defs>
    <g id="Page-1" stroke="none" stroke-width="1" fill="none" fill-rule="evenodd">
        <g id="Logo-Simple-White" fill="#FFFFFF">
            <path d="M484.911717,485.23494 C475.469248,482.319805 438.164213,471.719084 394.900704,471.719084 C344.753723,471.719084 302.527899,485.984691 302.527899,485.984691 C302.527899,485.984691 294.606742,490.742435 294.606742,513.570455 C294.606742,523.223186 296.029451,529.617675 297.663454,533.81374 C395.66136,520.7884 452.917192,500.883139 484.911717,485.23494" id="Fill-1"></path>
            <path d="M583.234063,452.565696 L598.901437,452.560587 L607.609669,428.653435 L567.566688,428.653435 L567.213149,428.653435 L527.174819,428.653435 L535.878399,452.560587 L551.545774,452.085458 C551.545774,452.085458 516.205796,522.100537 268.988764,549.346362 C268.988764,549.346362 312.757864,653.445544 550.001365,656 L573.260532,656 C819.8077,653.445544 860.032103,549.589035 860.032103,549.589035 C612.819723,522.340655 583.234063,452.565696 583.234063,452.565696" id="Fill-3"></path>
            <path d="M774.980022,181.773277 C774.980022,118.807462 681.380669,67.5832391 566.337961,67.5832391 C451.295254,67.5832391 357.700556,118.807462 357.700556,181.773277 C357.700556,244.74164 451.295254,295.970959 566.337961,295.970959 C681.380669,295.970959 774.980022,244.74164 774.980022,181.773277 L774.980022,181.773277 Z M785.008026,181.773277 C785.008026,247.768769 686.911434,301.459542 566.337961,301.459542 C445.764489,301.459542 347.672552,247.768769 347.672552,181.773277 C347.672552,115.780333 445.764489,62.0946565 566.337961,62.0946565 C686.911434,62.0946565 785.008026,115.780333 785.008026,181.773277 L785.008026,181.773277 Z M730.9434,132.518726 C731.748806,135.787924 732.205048,139.296642 732.205048,143.075457 C732.205048,153.489495 728.64357,165.203058 717.940516,179.84947 L660.644955,270.515555 C716.413503,252.719705 753.918422,219.650613 753.918422,181.773277 C753.918422,163.923917 745.58503,147.142206 730.9434,132.518726 L730.9434,132.518726 Z M569.634074,190.755289 L513.344107,280.264542 C530.155212,282.970612 547.925355,284.448503 566.337961,284.448503 C588.18169,284.448503 609.136213,282.384551 628.633557,278.628669 C628.135416,278.18785 627.669863,277.72155 627.28811,277.21448 L569.634074,190.755289 Z M692.972929,176.595561 C692.972929,163.900984 684.639537,155.117723 677.507271,148.281202 C668.000686,139.819 659.080698,132.661419 659.080698,124.199217 C659.080698,114.763646 672.153416,105.977837 690.579988,105.977837 C691.413327,105.977837 692.200111,106.033895 693.010173,106.061924 C659.639361,89.3235302 615.174431,79.1056953 566.337961,79.1056953 C500.802119,79.1056953 443.152739,97.5105385 409.609672,125.381531 C414.0138,125.457973 418.161874,125.503839 421.681452,125.503839 C441.299839,125.503839 471.677147,124.199217 471.677147,124.199217 C481.784295,123.87561 482.976109,132.006561 472.878273,132.661419 C472.878273,132.661419 462.710604,133.311182 451.406986,133.637337 L519.712867,244.84866 L560.769952,177.464459 L531.547214,133.637337 C521.440067,133.311182 511.87296,132.661419 511.87296,132.661419 C501.761158,132.332716 502.948317,123.87561 513.06012,124.199217 C513.06012,124.199217 544.033335,125.503839 562.464563,125.503839 C582.078295,125.503839 612.464915,124.199217 612.464915,124.199217 C622.576717,123.87561 623.768532,132.006561 613.661385,132.661419 C613.661385,132.661419 603.484405,133.311182 592.190098,133.637337 L659.98387,244.000146 L678.699085,209.784414 C686.795045,195.578821 692.972929,185.38137 692.972929,176.595561 L692.972929,176.595561 Z M378.7575,181.773277 C378.7575,222.410192 421.900262,257.533044 484.479844,274.172062 L395.000631,139.989722 C384.590875,152.758193 378.7575,166.887344 378.7575,181.773277 L378.7575,181.773277 Z" id="Fill-5"></path>
            <path d="M840.289189,534.815267 C842.012459,530.61499 843.563403,524.016747 843.563403,513.81644 C843.563403,490.854246 835.70622,486.071095 835.70622,486.071095 C835.70622,486.071095 793.821427,471.719084 744.079451,471.719084 C698.16593,471.719084 659.024398,483.921105 653.258427,485.802665 C684.654556,501.624645 741.508517,521.777281 840.289189,534.815267" id="Fill-7"></path>
            <path d="M1136.2409,53.8041143 L1114.30265,53.2003332 C1116.34027,80.6354348 1116.2237,157.175521 1060.48515,249.296728 C991.905382,362.644536 921.847519,422.482559 895.419035,442.550002 C867.806212,434.886822 807.805907,418.10833 719.675214,393.083258 C619.118284,364.52976 588.110976,344.263604 587.943117,344.156605 L570.173366,331.146013 L551.53168,344.062343 C551.233263,344.263604 520.160678,364.52976 419.603748,393.083258 C331.477717,418.105782 271.332867,434.884274 243.720044,442.550002 C217.268246,422.462178 146.930618,362.626703 78.3601734,249.296728 C21.8709214,155.929745 21.9128862,78.5234746 24.0484271,52.0793893 L0.622756269,52.6678849 C-1.59671413,81.1424072 -0.901963944,158.869675 56.2307479,253.293912 C145.452526,400.764271 236.968378,458.699237 236.968378,458.699237 C236.968378,458.699237 304.900025,440.010045 430.365382,404.38441 C538.443332,373.696024 569.716416,352.046521 569.716416,352.046521 C569.716416,352.046521 600.9895,373.696024 709.067451,404.38441 C834.532807,440.010045 902.464455,458.699237 902.464455,458.699237 C902.464455,458.699237 992.814618,400.764271 1082.0364,253.293912 C1141.14612,155.601105 1136.2409,53.8041143 1136.2409,53.8041143" id="Fill-9"></path>
            <polygon id="Fill-11" points="575.57956 7.0114533 575.57956 0 552.256401 0 552.256401 7.0114533 1.82985554 20.9398522 1.82985554 40.0610687 570.914928 25.7214334 1140 40.0610687 1140 20.9398522"></polygon>
        </g>
    </g>
</svg>