
<svg width="1132px" height="655px" viewBox="0 0 1132 655" version="1.1" xmlns="http://www.w3.org/2000/svg" xmlns:xlink="http://www.w3.org/1999/xlink">
    <defs></defs>
    <g id="Page-1" stroke="none" stroke-width="1" fill="none" fill-rule="evenodd">
        <g id="Logo-White" transform="translate(-8.000000, 0.000000)" fill="#FFFFFF">
            <path d="M7.96,165.992 L35.48,109.352 L38.68,110.952 L11.224,167.4 L7.96,165.992 Z M50.712,122.728 L54.936,122.728 L54.808,135.912 L67.288,131.816 L68.568,135.656 L56.024,139.688 L63.832,150.312 L60.504,152.744 L52.824,141.928 L45.144,152.744 L41.816,150.312 L49.624,139.688 L37.08,135.656 L38.36,131.816 L50.84,135.912 L50.712,122.728 Z M86.488,122.728 L90.712,122.728 L90.584,135.912 L103.064,131.816 L104.344,135.656 L91.8,139.688 L99.608,150.312 L96.28,152.744 L88.6,141.928 L80.92,152.744 L77.592,150.312 L85.4,139.688 L72.856,135.656 L74.136,131.816 L86.616,135.912 L86.488,122.728 Z M54.988,201.264 L59.212,201.264 L59.084,214.448 L71.564,210.352 L72.844,214.192 L60.3,218.224 L68.108,228.848 L64.78,231.28 L57.1,220.464 L49.42,231.28 L46.092,228.848 L53.9,218.224 L41.356,214.192 L42.636,210.352 L55.116,214.448 L54.988,201.264 Z M151.652,194.032 L147.684,194.032 L141.54,232.752 L135.972,199.152 L129.892,199.152 L124.068,232.752 L118.436,194.032 L114.148,194.032 L120.74,238 L127.14,238 L132.708,204.272 L138.276,238 L144.484,238 L151.652,194.032 Z M170.864,203.76 C180.08,203.76 184.688,210.608 184.688,221.168 C184.688,231.216 179.952,238.64 170.8,238.64 C161.584,238.64 156.912,231.6 156.912,221.232 C156.912,210.992 161.648,203.76 170.864,203.76 Z M170.864,207.28 C164.592,207.28 161.264,211.76 161.264,221.232 C161.264,230.576 164.464,235.12 170.8,235.12 C177.136,235.12 180.336,230.576 180.336,221.168 C180.336,211.76 177.136,207.28 170.864,207.28 Z M218.3,203.76 C212.028,203.76 208.7,207.024 206.076,212.464 L205.308,204.4 L196.796,204.4 L196.796,207.728 L202.3,207.728 L202.3,234.672 L196.796,234.672 L196.796,238 L213.18,238 L213.18,234.672 L206.268,234.672 L206.268,219.056 C208.636,211.12 212.412,207.536 217.788,207.536 L218.62,207.536 L218.556,208.368 L218.556,214.96 L222.396,214.96 L222.844,204.4 C221.308,204.016 220.028,203.76 218.3,203.76 Z M254.856,190.256 L258.824,190.768 L258.824,238 L255.368,238 L254.856,233.392 C252.168,237.168 248.712,238.64 245.256,238.64 C236.296,238.64 232.264,231.6 232.264,221.296 C232.264,211.248 237.128,203.76 245.384,203.76 C249.544,203.76 252.488,205.232 254.856,208.048 L254.856,190.256 Z M246.408,207.216 C240.2,207.216 236.744,211.952 236.744,221.232 C236.744,230.128 239.752,235.184 245.704,235.184 C249.992,235.184 252.872,232.368 254.856,229.424 L254.856,212.016 C252.872,209.008 249.864,207.216 246.408,207.216 Z M288.212,193.392 C278.484,193.392 269.908,201.136 269.908,215.984 C269.908,230.704 278.228,238.64 288.532,238.64 C294.676,238.64 298.708,236.592 301.204,234.16 L298.9,231.28 C296.596,233.136 293.524,234.864 288.468,234.864 C280.532,234.864 274.196,229.872 274.196,215.984 C274.196,201.776 280.98,197.168 288.66,197.168 C291.988,197.168 295.124,197.936 298.068,200.432 L300.564,197.552 C297.108,194.864 293.78,193.392 288.212,193.392 Z M333.024,231.344 C333.024,234.096 333.92,235.184 335.904,235.76 L334.816,238.704 C332.256,238.32 330.08,236.912 329.312,233.84 C326.944,236.976 323.36,238.64 318.944,238.64 C312.224,238.64 308.256,234.608 308.256,228.336 C308.256,221.488 313.696,217.712 323.808,217.712 L328.864,217.712 L328.864,214.512 C328.864,209.2 325.664,207.344 320.48,207.344 C318.24,207.344 315.36,207.856 311.904,209.072 L310.688,205.808 C314.784,204.336 317.92,203.76 321.056,203.76 C328.928,203.76 333.024,207.984 333.024,214.32 L333.024,231.344 Z M319.648,235.504 C323.36,235.504 326.688,233.584 328.864,230.384 L328.864,220.784 L323.296,220.784 C315.36,220.784 312.608,223.792 312.608,228.464 C312.608,233.136 314.848,235.504 319.648,235.504 Z M369.452,203.76 C365.868,203.76 363.82,205.616 362.028,208.368 C360.94,204.72 358.252,203.76 355.692,203.76 C352.172,203.76 349.996,205.936 348.268,208.496 L348.012,204.4 L344.812,204.4 L344.812,238 L348.588,238 L348.588,211.504 C350.636,208.24 352.812,206.896 355.18,206.896 C357.932,206.896 358.06,208.944 358.06,213.744 L358.06,238 L362.476,238 L362.476,211.504 C364.46,208.24 366.764,206.896 369.068,206.896 C371.82,206.896 371.948,208.944 371.948,213.744 L371.948,238 L375.788,238 L375.788,212.912 C375.788,204.976 372.204,203.76 369.452,203.76 Z M399.992,203.76 C408.952,203.76 412.088,210.736 412.088,221.168 C412.088,231.344 408.056,238.64 399.16,238.64 C395.32,238.64 392.312,237.296 389.944,234.672 L389.944,250.864 L385.976,251.376 L385.976,204.4 L389.304,204.4 L389.752,209.328 C392.12,205.936 395.64,203.76 399.992,203.76 Z M399.224,207.216 C395.128,207.216 391.928,210.224 389.944,213.04 L389.944,230.448 C391.864,233.2 395,234.992 398.52,234.992 C404.664,234.992 407.736,230.512 407.736,221.104 C407.736,212.208 405.176,207.216 399.224,207.216 Z M54.988,293.264 L59.212,293.264 L59.084,306.448 L71.564,302.352 L72.844,306.192 L60.3,310.224 L68.108,320.848 L64.78,323.28 L57.1,312.464 L49.42,323.28 L46.092,320.848 L53.9,310.224 L41.356,306.192 L42.636,302.352 L55.116,306.448 L54.988,293.264 Z M150.564,300.112 C150.564,310.416 143.46,315.216 133.028,315.216 L128.164,315.216 L128.164,330 L117.668,330 L117.668,285.648 L131.62,285.648 C143.716,285.648 150.564,290.384 150.564,300.112 Z M139.812,300.112 C139.812,295.376 137.124,293.136 131.812,293.136 L128.164,293.136 L128.164,307.664 L132.324,307.664 C136.996,307.664 139.812,305.36 139.812,300.112 Z M170.8,294.864 C181.296,294.864 187.312,302.032 187.312,312.912 C187.312,324.304 181.232,331.088 170.8,331.088 C160.368,331.088 154.288,324.432 154.288,312.976 C154.288,302.16 160.368,294.864 170.8,294.864 Z M170.8,302.352 C166.64,302.352 164.72,305.552 164.72,312.976 C164.72,320.528 166.64,323.664 170.8,323.664 C174.96,323.664 176.88,320.528 176.88,312.912 C176.88,305.552 174.96,302.352 170.8,302.352 Z M219.9,294.992 C214.46,294.992 210.748,297.808 208.316,303.632 L206.524,296.016 L194.3,296.016 L194.3,302.736 L198.78,302.736 L198.78,323.216 L194.3,323.216 L194.3,330 L215.612,330 L215.612,323.216 L208.892,323.216 L208.892,313.488 C210.428,308.432 213.436,304.656 217.276,304.016 L217.276,310.224 L223.676,310.224 L225.532,296.016 C223.932,295.376 222.204,294.992 219.9,294.992 Z M262.472,328.016 L259.144,321.552 C257.544,322.448 255.56,323.088 253.192,323.088 C249.8,323.088 248.328,321.808 248.328,318.416 L248.328,302.992 L258.248,302.992 L259.272,296.016 L248.328,296.016 L248.328,287.44 L238.216,288.656 L238.216,296.016 L231.112,296.016 L231.112,302.992 L238.216,302.992 L238.216,318.416 C238.216,326.224 242.44,331.088 251.336,331.088 C256.008,331.088 259.784,329.744 262.472,328.016 Z M284.5,294.864 C294.996,294.864 301.012,302.032 301.012,312.912 C301.012,324.304 294.932,331.088 284.5,331.088 C274.068,331.088 267.988,324.432 267.988,312.976 C267.988,302.16 274.068,294.864 284.5,294.864 Z M284.5,302.352 C280.34,302.352 278.42,305.552 278.42,312.976 C278.42,320.528 280.34,323.664 284.5,323.664 C288.66,323.664 290.58,320.528 290.58,312.912 C290.58,305.552 288.66,302.352 284.5,302.352 Z M328.288,324.368 L328.288,285.84 L321.952,285.84 L308.384,294.16 L311.456,299.152 L321.184,293.2 L321.184,324.368 L310.432,324.368 L310.432,330 L337.12,330 L337.12,324.368 L328.288,324.368 Z M374.06,296.336 C374.06,300.624 371.564,303.504 366.764,306.192 C372.588,308.816 375.852,312.848 375.852,318.096 C375.852,325.2 370.092,330.832 360.172,330.832 C350.188,330.832 344.748,325.2 344.748,318.288 C344.748,312.976 348.076,309.264 353.324,306.896 C348.652,304.464 346.54,301.648 346.54,296.72 C346.54,288.848 353.516,284.944 360.3,284.944 C367.596,284.944 374.06,288.784 374.06,296.336 Z M353.452,296.784 C353.452,301.136 356.524,302.544 361.9,304.4 C365.548,302.16 367.148,300.112 367.148,296.72 C367.148,292.752 364.716,290.192 360.3,290.192 C355.948,290.192 353.452,292.56 353.452,296.784 Z M368.492,318.16 C368.492,312.784 364.524,311.184 357.932,308.88 C354.732,310.544 352.108,313.296 352.108,318.032 C352.108,322.512 354.86,325.392 360.236,325.392 C365.74,325.392 368.492,322.192 368.492,318.16 Z M54.988,370.264 L59.212,370.264 L59.084,383.448 L71.564,379.352 L72.844,383.192 L60.3,387.224 L68.108,397.848 L64.78,400.28 L57.1,389.464 L49.42,400.28 L46.092,397.848 L53.9,387.224 L41.356,383.192 L42.636,379.352 L55.116,383.448 L54.988,370.264 Z M54.988,447.264 L59.212,447.264 L59.084,460.448 L71.564,456.352 L72.844,460.192 L60.3,464.224 L68.108,474.848 L64.78,477.28 L57.1,466.464 L49.42,477.28 L46.092,474.848 L53.9,464.224 L41.356,460.192 L42.636,456.352 L55.116,460.448 L54.988,447.264 Z M127.204,443.68 L147.62,443.68 L148.132,440.032 L123.108,440.032 L123.108,484 L127.204,484 L127.204,463.776 L144.996,463.776 L144.996,460.256 L127.204,460.256 L127.204,443.68 Z M164.336,443.68 L183.6,443.68 L184.112,440.032 L160.24,440.032 L160.24,484 L184.88,484 L184.88,480.416 L164.336,480.416 L164.336,463.52 L180.976,463.52 L180.976,459.808 L164.336,459.808 L164.336,443.68 Z M222.716,440.032 L218.556,440.032 L218.556,471.328 C218.556,477.664 214.588,480.736 208.636,480.736 C202.748,480.736 198.78,477.664 198.78,471.328 L198.78,440.032 L194.684,440.032 L194.684,469.92 C194.684,478.624 200.124,484.64 208.636,484.64 C216.892,484.64 222.716,478.816 222.716,469.92 L222.716,440.032 Z M262.664,453.28 C262.664,463.584 255.56,467.168 245.832,467.168 L239.88,467.168 L239.88,484 L235.848,484 L235.848,440.032 L246.216,440.032 C256.328,440.032 262.664,444.192 262.664,453.28 Z M258.184,453.344 C258.184,445.92 253.256,443.488 247.112,443.488 L239.88,443.488 L239.88,463.648 L246.664,463.648 C253.192,463.648 258.184,461.6 258.184,453.344 Z M54.988,524.264 L59.212,524.264 L59.084,537.448 L71.564,533.352 L72.844,537.192 L60.3,541.224 L68.108,551.848 L64.78,554.28 L57.1,543.464 L49.42,554.28 L46.092,551.848 L53.9,541.224 L41.356,537.192 L42.636,533.352 L55.116,537.448 L54.988,524.264 Z M136.74,557.608 L136.74,517.032 L133.284,517.032 L120.484,524.968 L122.276,527.848 L132.644,521.64 L132.644,557.608 L121.764,557.608 L121.764,561 L146.148,561 L146.148,557.608 L136.74,557.608 Z M183.536,527.464 C183.536,531.816 180.592,534.824 175.664,537.512 C181.36,539.688 185.392,543.72 185.392,549.224 C185.392,556.584 179.44,561.64 170.672,561.64 C161.648,561.64 156.208,556.328 156.208,549.288 C156.208,543.784 159.792,540.264 165.296,537.704 C160.56,535.656 158.064,532.648 158.064,527.72 C158.064,519.464 165.744,516.392 170.8,516.392 C176.496,516.392 183.536,519.464 183.536,527.464 Z M162.032,527.784 C162.032,533.416 166.256,534.44 172.72,536.488 C177.136,534.12 179.568,532.008 179.568,527.592 C179.568,522.792 176.304,519.784 170.8,519.784 C165.296,519.784 162.032,522.792 162.032,527.784 Z M181.04,549.352 C181.04,542.952 175.472,541.352 168.24,538.856 C164.272,540.52 160.56,543.4 160.56,549.48 C160.56,554.92 163.952,558.12 170.608,558.12 C177.264,558.12 181.04,554.408 181.04,549.352 Z M237.32,545.768 C237.448,554.216 242.184,557.992 247.624,557.992 C251.144,557.992 253.64,556.968 256.712,554.92 L258.76,557.864 C255.688,560.232 251.528,561.64 247.816,561.64 C238.536,561.64 233.032,554.664 233.032,544.232 C233.032,533.992 238.728,526.76 247.176,526.76 C255.368,526.76 260.232,533.032 260.232,543.08 C260.232,544.232 260.168,545.128 260.168,545.768 L237.32,545.768 Z M247.304,530.472 C241.864,530.472 237.832,534.312 237.384,542.248 L256.456,542.248 C256.264,534.312 252.616,530.472 247.304,530.472 Z M326.24,557.608 L326.24,517.032 L322.784,517.032 L309.984,524.968 L311.776,527.848 L322.144,521.64 L322.144,557.608 L311.264,557.608 L311.264,561 L335.648,561 L335.648,557.608 L326.24,557.608 Z M359.468,516.52 C369.004,516.52 373.292,522.792 373.292,533.288 C373.292,552.68 366.7,557.352 350.892,562.152 L349.868,558.952 C361.9,555.752 369.452,550.504 369.004,538.728 L369.068,536.488 L368.876,538.856 C367.276,541.672 363.564,544.488 358.444,544.616 C351.02,544.68 345.772,539.432 345.772,530.6 C345.772,521.128 351.916,516.52 359.468,516.52 Z M358.764,541.096 C363.5,541.032 366.7,538.216 369.132,533.992 C369.324,523.24 365.868,520.04 359.532,520.04 C353.196,520.04 349.996,523.816 349.996,530.92 C349.996,538.024 353.196,541.224 358.764,541.096 Z M450.628,517.032 L443.716,517.032 L436.228,547.624 L428.42,517.032 L421.572,517.032 L419.076,561 L423.172,561 L424.644,536.68 C424.964,531.624 424.964,522.408 424.9,520.936 L433.668,553 L438.532,553 L446.66,520.936 C446.788,522.024 446.916,530.92 447.3,536.744 L448.9,561 L453.124,561 L450.628,517.032 Z M484.624,554.344 C484.624,557.096 485.52,558.184 487.504,558.76 L486.416,561.704 C483.856,561.32 481.68,559.912 480.912,556.84 C478.544,559.976 474.96,561.64 470.544,561.64 C463.824,561.64 459.856,557.608 459.856,551.336 C459.856,544.488 465.296,540.712 475.408,540.712 L480.464,540.712 L480.464,537.512 C480.464,532.2 477.264,530.344 472.08,530.344 C469.84,530.344 466.96,530.856 463.504,532.072 L462.288,528.808 C466.384,527.336 469.52,526.76 472.656,526.76 C480.528,526.76 484.624,530.984 484.624,537.32 L484.624,554.344 Z M471.248,558.504 C474.96,558.504 478.288,556.584 480.464,553.384 L480.464,543.784 L474.896,543.784 C466.96,543.784 464.208,546.792 464.208,551.464 C464.208,556.136 466.448,558.504 471.248,558.504 Z M511.9,512.232 C509.98,512.232 508.7,513.576 508.7,515.368 C508.7,517.288 509.98,518.632 511.9,518.632 C513.948,518.632 515.292,517.288 515.292,515.368 C515.292,513.576 513.948,512.232 511.9,512.232 Z M515.676,527.4 L501.404,527.4 L501.404,530.856 L511.708,530.856 L511.708,557.544 L501.084,557.544 L501.084,561 L525.404,561 L525.404,557.544 L515.676,557.544 L515.676,527.4 Z M549.864,526.76 C559.08,526.76 563.688,533.608 563.688,544.168 C563.688,554.216 558.952,561.64 549.8,561.64 C540.584,561.64 535.912,554.6 535.912,544.232 C535.912,533.992 540.648,526.76 549.864,526.76 Z M549.864,530.28 C543.592,530.28 540.264,534.76 540.264,544.232 C540.264,553.576 543.464,558.12 549.8,558.12 C556.136,558.12 559.336,553.576 559.336,544.168 C559.336,534.76 556.136,530.28 549.864,530.28 Z M74.328,642.992 L101.848,586.352 L105.048,587.952 L77.592,644.4 L74.328,642.992 Z M56.792,599.728 L61.016,599.728 L60.888,612.912 L73.368,608.816 L74.648,612.656 L62.104,616.688 L69.912,627.312 L66.584,629.744 L58.904,618.928 L51.224,629.744 L47.896,627.312 L55.704,616.688 L43.16,612.656 L44.44,608.816 L56.92,612.912 L56.792,599.728 Z" id="/**-*-WordCamp-*-Por"></path>
            <path d="M782,484.495252 C776.839773,481.584561 756.452899,471 732.809771,471 C705.404885,471 682.328843,485.243861 682.328843,485.243861 C682.328843,485.243861 678,489.994352 678,512.787574 C678,522.425589 678.777498,528.810331 679.670466,533 C733.225463,519.994515 764.515273,500.119597 782,484.495252" id="Fill-1"></path>
            <path d="M835.732299,451.875809 L844.294382,451.870708 L849.053354,428 L827.170216,428 L826.97701,428 L805.096414,428 L809.852844,451.870708 L818.414927,451.396303 C818.414927,451.396303 799.101939,521.304652 664,548.508944 C664,548.508944 687.919429,652.449438 817.570921,655 L830.281852,655 C965.017717,652.449438 987,548.751247 987,548.751247 C851.900603,521.544404 835.732299,451.875809 835.732299,451.875809" id="Fill-3"></path>
            <path d="M940.519784,181.496184 C940.519784,118.626353 889.368558,67.4802159 826.498728,67.4802159 C763.628897,67.4802159 712.480216,118.626353 712.480216,181.496184 C712.480216,244.368558 763.628897,295.519784 826.498728,295.519784 C889.368558,295.519784 940.519784,244.368558 940.519784,181.496184 L940.519784,181.496184 Z M946,181.496184 C946,247.391073 892.391073,301 826.498728,301 C760.606383,301 707,247.391073 707,181.496184 C707,115.603839 760.606383,62 826.498728,62 C892.391073,62 946,115.603839 946,181.496184 L946,181.496184 Z M916.454156,132.316716 C916.894304,135.58093 917.143636,139.084299 917.143636,142.857354 C917.143636,153.255517 915.19732,164.951224 909.348194,179.57531 L878.036673,270.103184 C908.513695,252.334462 929.009804,219.315779 929.009804,181.496184 C929.009804,163.674033 924.455679,146.917904 916.454156,132.316716 L916.454156,132.316716 Z M828.300024,190.464504 L797.538051,279.837309 C806.725173,282.539254 816.4364,284.014893 826.498728,284.014893 C838.436134,284.014893 849.887597,281.954087 860.542725,278.20393 C860.270495,277.763783 860.016074,277.298194 859.80745,276.791897 L828.300024,190.464504 Z M895.703627,176.326361 C895.703627,163.651135 891.149501,154.881263 887.25178,148.055163 C882.056515,139.605861 877.18182,132.459192 877.18182,124.009889 C877.18182,114.588701 884.325946,105.816285 894.395906,105.816285 C894.851318,105.816285 895.281289,105.872258 895.72398,105.900244 C877.487125,89.1873663 853.18743,78.9851074 826.498728,78.9851074 C790.683965,78.9851074 759.179084,97.3618944 740.848093,125.1904 C743.25491,125.266726 745.521796,125.312522 747.445214,125.312522 C758.166491,125.312522 774.767424,124.009889 774.767424,124.009889 C780.290891,123.686775 780.942207,131.805331 775.423828,132.459192 C775.423828,132.459192 769.867286,133.107964 763.689958,133.433622 L801.018523,244.475415 L823.45586,177.193934 L807.48589,133.433622 C801.962422,133.107964 796.734083,132.459192 796.734083,132.459192 C791.208071,132.130989 791.856843,123.686775 797.382855,124.009889 C797.382855,124.009889 814.309445,125.312522 824.38195,125.312522 C835.100682,125.312522 851.706703,124.009889 851.706703,124.009889 C857.232715,123.686775 857.884031,131.805331 852.360564,132.459192 C852.360564,132.459192 846.798933,133.107964 840.626694,133.433622 L877.675396,243.628195 L887.903097,209.464621 C892.327468,195.280682 895.703627,185.098777 895.703627,176.326361 L895.703627,176.326361 Z M723.987652,181.496184 C723.987652,222.071153 747.564792,257.140463 781.763985,273.754117 L732.86438,139.776323 C727.175539,152.52533 723.987652,166.632943 723.987652,181.496184 L723.987652,181.496184 Z" id="Fill-5"></path>
            <path d="M976.210671,534 C977.152423,529.806126 978,523.217941 978,513.033183 C978,490.105992 973.706118,485.330132 973.706118,485.330132 C973.706118,485.330132 950.816446,471 923.632893,471 C898.541557,471 877.151052,483.18342 874,485.062113 C891.157709,500.859973 922.2279,520.981889 976.210671,534" id="Fill-7"></path>
            <path d="M1137.94568,53.7220959 L1125.95662,53.1192351 C1127.07016,80.512515 1127.00646,156.935925 1096.54583,248.916703 C1059.06759,362.091724 1020.78158,421.83853 1006.33865,441.875383 C991.248483,434.223885 958.458842,417.47097 910.296191,392.484045 C855.342711,363.974074 838.39749,343.738812 838.305756,343.631976 L828.594743,330.641217 L818.407225,343.537858 C818.244143,343.738812 801.263248,363.974074 746.309767,392.484045 C698.149665,417.468426 665.281032,434.221341 650.190866,441.875383 C635.735191,421.818181 597.296294,362.073918 559.823147,248.916703 C528.952267,155.692047 528.9752,78.4037742 530.142254,52 L517.340331,52.5875984 C516.12741,81.0187145 516.507085,158.627496 547.72961,252.907793 C596.488529,400.15335 646.50114,458 646.50114,458 C646.50114,458 683.625189,439.339298 752.190906,403.76797 C811.254558,373.126365 828.345024,351.509865 828.345024,351.509865 C828.345024,351.509865 845.43549,373.126365 904.499142,403.76797 C973.064859,439.339298 1010.18891,458 1010.18891,458 C1010.18891,458 1059.56448,400.15335 1108.3234,252.907793 C1140.62634,155.363908 1137.94568,53.7220959 1137.94568,53.7220959" id="Fill-9"></path>
            <polygon id="Fill-11" points="831.54918 7.00076511 831.54918 0 818.803279 0 818.803279 7.00076511 518 20.9079317 518 40 829 25.6822239 1140 40 1140 20.9079317"></polygon>
        </g>
    </g>
</svg>