<svg width="305" height="320" xmlns="http://www.w3.org/2000/svg"><g fill="#FFF" fill-rule="evenodd"><path d="M129.466 236.7c-2.521-1.422-12.481-6.593-24.032-6.593-13.389 0-24.663 6.959-24.663 6.959s-2.115 2.32-2.115 13.456c0 4.709.38 7.828.817 9.875 26.164-6.354 41.45-16.064 49.993-23.697"/><path d="M155.717 220.764l4.183-.003 2.325-11.662h-21.476l2.324 11.662 4.183-.232s-9.435 34.154-75.44 47.445c0 0 11.687 50.78 75.028 52.026h6.21c65.825-1.246 76.564-51.908 76.564-51.908-66.002-13.292-73.901-47.328-73.901-47.328M206.91 88.67c0-30.715-24.99-55.703-55.705-55.703S95.502 57.955 95.502 88.67c0 30.716 24.988 55.706 55.703 55.706 30.716 0 55.705-24.99 55.705-55.706zm2.678 0c0 32.193-26.19 58.383-58.383 58.383-32.191 0-58.38-26.19-58.38-58.383 0-32.192 26.189-58.38 58.38-58.38 32.192 0 58.383 26.188 58.383 58.38zm-14.435-24.027a38.48 38.48 0 0 1 .337 5.15c0 5.08-.95 10.794-3.808 17.938l-15.298 44.228c14.89-8.681 24.903-24.812 24.903-43.29a49.841 49.841 0 0 0-6.134-24.026zm-43.067 28.408l-15.03 43.663a50.058 50.058 0 0 0 14.15 2.041 49.996 49.996 0 0 0 16.632-2.839 4.753 4.753 0 0 1-.36-.69l-15.392-42.175zm32.93-6.907c0-6.192-2.225-10.477-4.13-13.812-2.538-4.128-4.92-7.62-4.92-11.747 0-4.603 3.491-8.888 8.41-8.888.223 0 .433.027.65.04-8.91-8.165-20.782-13.149-33.82-13.149-17.498 0-32.89 8.978-41.845 22.574 1.176.037 2.283.06 3.223.06 5.238 0 13.348-.637 13.348-.637 2.699-.158 3.017 3.808.32 4.128 0 0-2.714.317-5.732.476l18.237 54.25 10.962-32.871-7.802-21.38a92.887 92.887 0 0 1-5.253-.475c-2.7-.16-2.383-4.286.317-4.128 0 0 8.27.636 13.19.636 5.237 0 13.35-.636 13.35-.636 2.7-.158 3.018 3.808.32 4.128 0 0-2.718.317-5.733.476l18.1 53.835 4.997-16.69c2.161-6.93 3.81-11.904 3.81-16.19zm-83.892 2.526c0 19.823 11.518 36.956 28.226 45.072l-23.89-65.454a49.883 49.883 0 0 0-4.336 20.382z"/><path d="M224.347 260.885c.46-2.048.874-5.267.874-10.243 0-11.2-2.097-13.534-2.097-13.534s-11.183-7.001-24.464-7.001c-12.258 0-22.708 5.952-24.248 6.87 8.383 7.718 23.562 17.549 49.935 23.908m79.016-234.639l-5.857-.295c.544 13.383.512 50.72-14.37 95.657-18.31 55.292-37.014 84.481-44.07 94.27-7.372-3.738-23.391-11.923-46.921-24.13-26.848-13.929-35.126-23.815-35.171-23.867l-4.745-6.346-4.977 6.3c-.08.098-8.375 9.984-35.223 23.913-23.528 12.206-39.586 20.39-46.959 24.13-7.062-9.799-25.841-38.987-44.149-94.27C5.84 76.063 5.851 38.304 6.421 25.405l-6.255.287c-.592 13.89-.407 51.805 14.847 97.866 23.821 71.937 48.255 100.198 48.255 100.198s18.137-9.117 51.634-26.495c28.856-14.97 37.205-25.531 37.205-25.531s8.35 10.56 37.206 25.53c33.497 17.379 51.634 26.496 51.634 26.496s24.123-28.261 47.944-100.198c15.781-47.655 14.472-97.312 14.472-97.312M153.673 3.42V0h-6.227v3.42L.489 10.215v9.327l151.938-6.995 151.94 6.995v-9.327z"/></g></svg>