<svg width="1140" height="656" xmlns="http://www.w3.org/2000/svg"><g fill="#FFF" fill-rule="evenodd"><path d="M484.912 485.235c-9.443-2.915-46.748-13.516-90.011-13.516-50.147 0-92.373 14.266-92.373 14.266s-7.921 4.757-7.921 27.585c0 9.653 1.422 16.048 3.056 20.244 97.998-13.026 155.254-32.93 187.249-48.58"/><path d="M583.234 452.566l15.667-.005 8.709-23.908h-80.435l8.703 23.908 15.668-.476s-35.34 70.016-282.557 97.261c0 0 43.769 104.1 281.012 106.654h23.26c246.547-2.554 286.771-106.411 286.771-106.411-247.212-27.248-276.798-97.023-276.798-97.023M774.98 181.773c0-62.966-93.6-114.19-208.642-114.19-115.043 0-208.637 51.224-208.637 114.19 0 62.969 93.594 114.198 208.637 114.198s208.642-51.23 208.642-114.198zm10.028 0c0 65.996-98.097 119.687-218.67 119.687-120.574 0-218.665-53.691-218.665-119.687 0-65.993 98.091-119.678 218.665-119.678 120.573 0 218.67 53.685 218.67 119.678zm-54.065-49.254a43.928 43.928 0 0 1 1.262 10.556c0 10.414-3.561 22.128-14.264 36.774l-57.296 90.667c55.769-17.796 93.273-50.865 93.273-88.743 0-17.85-8.333-34.63-22.975-49.254zm-161.309 58.236l-56.29 89.51c16.811 2.706 34.581 4.184 52.994 4.184 21.844 0 42.798-2.064 62.296-5.82-.499-.441-.964-.907-1.346-1.415l-57.654-86.459zm123.339-14.16c0-12.694-8.333-21.477-15.466-28.314-9.506-8.462-18.426-15.62-18.426-24.082 0-9.435 13.072-18.221 31.499-18.221.833 0 1.62.056 2.43.084-33.37-16.738-77.836-26.956-126.672-26.956-65.536 0-123.185 18.405-156.728 46.276 4.404.076 8.552.122 12.071.122 19.619 0 49.996-1.305 49.996-1.305 10.107-.323 11.3 7.808 1.201 8.462 0 0-10.167.65-21.471.976l68.306 111.212 41.057-67.385-29.223-43.827c-10.107-.326-19.674-.976-19.674-.976-10.112-.328-8.925-8.785 1.187-8.462 0 0 30.973 1.305 49.405 1.305 19.613 0 50-1.305 50-1.305 10.112-.323 11.304 7.808 1.196 8.462 0 0-10.177.65-21.47.976L659.983 244l18.715-34.216c8.096-14.205 14.274-24.403 14.274-33.188zm-314.215 5.178c0 40.637 43.142 75.76 105.722 92.4L395 139.99c-10.41 12.768-16.243 26.897-16.243 41.783z"/><path d="M840.29 534.815c1.722-4.2 3.273-10.798 3.273-20.999 0-22.962-7.857-27.745-7.857-27.745s-41.885-14.352-91.627-14.352c-45.913 0-85.055 12.202-90.82 14.084 31.396 15.822 88.25 35.974 187.03 49.012M1136.24 53.804l-21.937-.604c2.037 27.435 1.92 103.976-53.818 196.097-68.58 113.348-138.637 173.186-165.066 193.253-27.613-7.663-87.613-24.442-175.744-49.467-100.557-28.553-131.564-48.82-131.732-48.926l-17.77-13.011-18.641 12.916c-.299.202-31.371 20.468-131.928 49.021-88.126 25.023-148.271 41.801-175.884 49.467-26.452-20.088-96.79-79.923-165.36-193.253C21.87 155.93 21.913 78.523 24.048 52.079l-23.425.589C-1.597 81.142-.902 158.87 56.23 253.294c89.222 147.47 180.737 205.405 180.737 205.405s67.932-18.689 193.397-54.315c108.078-30.688 139.351-52.337 139.351-52.337s31.274 21.649 139.351 52.337C834.533 440.01 902.464 458.7 902.464 458.7s90.35-57.935 179.572-205.405c59.11-97.693 54.205-199.49 54.205-199.49M575.58 7.011V0h-23.324v7.011L1.83 20.94v19.12l569.085-14.34L1140 40.061V20.94z"/></g></svg>