<svg width="1132" height="655" xmlns="http://www.w3.org/2000/svg"><g fill="#FFF" fill-rule="evenodd"><path d="M-.04 165.992l27.52-56.64 3.2 1.6L3.224 167.4l-3.264-1.408zm42.752-43.264h4.224l-.128 13.184 12.48-4.096 1.28 3.84-12.544 4.032 7.808 10.624-3.328 2.432-7.68-10.816-7.68 10.816-3.328-2.432 7.808-10.624-12.544-4.032 1.28-3.84 12.48 4.096-.128-13.184zm35.776 0h4.224l-.128 13.184 12.48-4.096 1.28 3.84-12.544 4.032 7.808 10.624-3.328 2.432-7.68-10.816-7.68 10.816-3.328-2.432 7.808-10.624-12.544-4.032 1.28-3.84 12.48 4.096-.128-13.184zm-31.5 78.536h4.224l-.128 13.184 12.48-4.096 1.28 3.84-12.544 4.032 7.808 10.624-3.328 2.432-7.68-10.816-7.68 10.816-3.328-2.432 7.808-10.624-12.544-4.032 1.28-3.84 12.48 4.096-.128-13.184zm96.664-7.232h-3.968l-6.144 38.72-5.568-33.6h-6.08l-5.824 33.6-5.632-38.72h-4.288L112.74 238h6.4l5.568-33.728L130.276 238h6.208l7.168-43.968zm19.212 9.728c9.216 0 13.824 6.848 13.824 17.408 0 10.048-4.736 17.472-13.888 17.472-9.216 0-13.888-7.04-13.888-17.408 0-10.24 4.736-17.472 13.952-17.472zm0 3.52c-6.272 0-9.6 4.48-9.6 13.952 0 9.344 3.2 13.888 9.536 13.888 6.336 0 9.536-4.544 9.536-13.952 0-9.408-3.2-13.888-9.472-13.888zm47.436-3.52c-6.272 0-9.6 3.264-12.224 8.704l-.768-8.064h-8.512v3.328h5.504v26.944h-5.504V238h16.384v-3.328h-6.912v-15.616c2.368-7.936 6.144-11.52 11.52-11.52h.832l-.064.832v6.592h3.84l.448-10.56c-1.536-.384-2.816-.64-4.544-.64zm36.556-13.504l3.968.512V238h-3.456l-.512-4.608c-2.688 3.776-6.144 5.248-9.6 5.248-8.96 0-12.992-7.04-12.992-17.344 0-10.048 4.864-17.536 13.12-17.536 4.16 0 7.104 1.472 9.472 4.288v-17.792zm-8.448 16.96c-6.208 0-9.664 4.736-9.664 14.016 0 8.896 3.008 13.952 8.96 13.952 4.288 0 7.168-2.816 9.152-5.76v-17.408c-1.984-3.008-4.992-4.8-8.448-4.8zm41.804-13.824c-9.728 0-18.304 7.744-18.304 22.592 0 14.72 8.32 22.656 18.624 22.656 6.144 0 10.176-2.048 12.672-4.48l-2.304-2.88c-2.304 1.856-5.376 3.584-10.432 3.584-7.936 0-14.272-4.992-14.272-18.88 0-14.208 6.784-18.816 14.464-18.816 3.328 0 6.464.768 9.408 3.264l2.496-2.88c-3.456-2.688-6.784-4.16-12.352-4.16zm44.812 37.952c0 2.752.896 3.84 2.88 4.416l-1.088 2.944c-2.56-.384-4.736-1.792-5.504-4.864-2.368 3.136-5.952 4.8-10.368 4.8-6.72 0-10.688-4.032-10.688-10.304 0-6.848 5.44-10.624 15.552-10.624h5.056v-3.2c0-5.312-3.2-7.168-8.384-7.168-2.24 0-5.12.512-8.576 1.728l-1.216-3.264c4.096-1.472 7.232-2.048 10.368-2.048 7.872 0 11.968 4.224 11.968 10.56v17.024zm-13.376 4.16c3.712 0 7.04-1.92 9.216-5.12v-9.6h-5.568c-7.936 0-10.688 3.008-10.688 7.68s2.24 7.04 7.04 7.04zm49.804-31.744c-3.584 0-5.632 1.856-7.424 4.608-1.088-3.648-3.776-4.608-6.336-4.608-3.52 0-5.696 2.176-7.424 4.736l-.256-4.096h-3.2V238h3.776v-26.496c2.048-3.264 4.224-4.608 6.592-4.608 2.752 0 2.88 2.048 2.88 6.848V238h4.416v-26.496c1.984-3.264 4.288-4.608 6.592-4.608 2.752 0 2.88 2.048 2.88 6.848V238h3.84v-25.088c0-7.936-3.584-9.152-6.336-9.152zm30.54 0c8.96 0 12.096 6.976 12.096 17.408 0 10.176-4.032 17.472-12.928 17.472-3.84 0-6.848-1.344-9.216-3.968v16.192l-3.968.512V204.4h3.328l.448 4.928c2.368-3.392 5.888-5.568 10.24-5.568zm-.768 3.456c-4.096 0-7.296 3.008-9.28 5.824v17.408c1.92 2.752 5.056 4.544 8.576 4.544 6.144 0 9.216-4.48 9.216-13.888 0-8.896-2.56-13.888-8.512-13.888zM46.988 293.264h4.224l-.128 13.184 12.48-4.096 1.28 3.84-12.544 4.032 7.808 10.624-3.328 2.432-7.68-10.816-7.68 10.816-3.328-2.432 7.808-10.624-12.544-4.032 1.28-3.84 12.48 4.096-.128-13.184zm95.576 6.848c0 10.304-7.104 15.104-17.536 15.104h-4.864V330h-10.496v-44.352h13.952c12.096 0 18.944 4.736 18.944 14.464zm-10.752 0c0-4.736-2.688-6.976-8-6.976h-3.648v14.528h4.16c4.672 0 7.488-2.304 7.488-7.552zm30.988-5.248c10.496 0 16.512 7.168 16.512 18.048 0 11.392-6.08 18.176-16.512 18.176s-16.512-6.656-16.512-18.112c0-10.816 6.08-18.112 16.512-18.112zm0 7.488c-4.16 0-6.08 3.2-6.08 10.624 0 7.552 1.92 10.688 6.08 10.688s6.08-3.136 6.08-10.752c0-7.36-1.92-10.56-6.08-10.56zm49.1-7.36c-5.44 0-9.152 2.816-11.584 8.64l-1.792-7.616H186.3v6.72h4.48v20.48h-4.48V330h21.312v-6.784h-6.72v-9.728c1.536-5.056 4.544-8.832 8.384-9.472v6.208h6.4l1.856-14.208c-1.6-.64-3.328-1.024-5.632-1.024zm42.572 33.024l-3.328-6.464a12.04 12.04 0 0 1-5.952 1.536c-3.392 0-4.864-1.28-4.864-4.672v-15.424h9.92l1.024-6.976h-10.944v-8.576l-10.112 1.216v7.36h-7.104v6.976h7.104v15.424c0 7.808 4.224 12.672 13.12 12.672 4.672 0 8.448-1.344 11.136-3.072zm22.028-33.152c10.496 0 16.512 7.168 16.512 18.048 0 11.392-6.08 18.176-16.512 18.176s-16.512-6.656-16.512-18.112c0-10.816 6.08-18.112 16.512-18.112zm0 7.488c-4.16 0-6.08 3.2-6.08 10.624 0 7.552 1.92 10.688 6.08 10.688s6.08-3.136 6.08-10.752c0-7.36-1.92-10.56-6.08-10.56zm43.788 22.016V285.84h-6.336l-13.568 8.32 3.072 4.992 9.728-5.952v31.168h-10.752V330h26.688v-5.632h-8.832zm45.772-28.032c0 4.288-2.496 7.168-7.296 9.856 5.824 2.624 9.088 6.656 9.088 11.904 0 7.104-5.76 12.736-15.68 12.736-9.984 0-15.424-5.632-15.424-12.544 0-5.312 3.328-9.024 8.576-11.392-4.672-2.432-6.784-5.248-6.784-10.176 0-7.872 6.976-11.776 13.76-11.776 7.296 0 13.76 3.84 13.76 11.392zm-20.608.448c0 4.352 3.072 5.76 8.448 7.616 3.648-2.24 5.248-4.288 5.248-7.68 0-3.968-2.432-6.528-6.848-6.528-4.352 0-6.848 2.368-6.848 6.592zm15.04 21.376c0-5.376-3.968-6.976-10.56-9.28-3.2 1.664-5.824 4.416-5.824 9.152 0 4.48 2.752 7.36 8.128 7.36 5.504 0 8.256-3.2 8.256-7.232zM46.988 370.264h4.224l-.128 13.184 12.48-4.096 1.28 3.84-12.544 4.032 7.808 10.624-3.328 2.432-7.68-10.816-7.68 10.816-3.328-2.432 7.808-10.624-12.544-4.032 1.28-3.84 12.48 4.096-.128-13.184zm0 77h4.224l-.128 13.184 12.48-4.096 1.28 3.84-12.544 4.032 7.808 10.624-3.328 2.432-7.68-10.816-7.68 10.816-3.328-2.432 7.808-10.624-12.544-4.032 1.28-3.84 12.48 4.096-.128-13.184zm72.216-3.584h20.416l.512-3.648h-25.024V484h4.096v-20.224h17.792v-3.52h-17.792V443.68zm37.132 0H175.6l.512-3.648H152.24V484h24.64v-3.584h-20.544V463.52h16.64v-3.712h-16.64V443.68zm58.38-3.648h-4.16v31.296c0 6.336-3.968 9.408-9.92 9.408-5.888 0-9.856-3.072-9.856-9.408v-31.296h-4.096v29.888c0 8.704 5.44 14.72 13.952 14.72 8.256 0 14.08-5.824 14.08-14.72v-29.888zm39.948 13.248c0 10.304-7.104 13.888-16.832 13.888h-5.952V484h-4.032v-43.968h10.368c10.112 0 16.448 4.16 16.448 13.248zm-4.48.064c0-7.424-4.928-9.856-11.072-9.856h-7.232v20.16h6.784c6.528 0 11.52-2.048 11.52-10.304zm-203.196 70.92h4.224l-.128 13.184 12.48-4.096 1.28 3.84-12.544 4.032 7.808 10.624-3.328 2.432-7.68-10.816-7.68 10.816-3.328-2.432 7.808-10.624-12.544-4.032 1.28-3.84 12.48 4.096-.128-13.184zm81.752 33.344v-40.576h-3.456l-12.8 7.936 1.792 2.88 10.368-6.208v35.968h-10.88V561h24.384v-3.392h-9.408zm46.796-30.144c0 4.352-2.944 7.36-7.872 10.048 5.696 2.176 9.728 6.208 9.728 11.712 0 7.36-5.952 12.416-14.72 12.416-9.024 0-14.464-5.312-14.464-12.352 0-5.504 3.584-9.024 9.088-11.584-4.736-2.048-7.232-5.056-7.232-9.984 0-8.256 7.68-11.328 12.736-11.328 5.696 0 12.736 3.072 12.736 11.072zm-21.504.32c0 5.632 4.224 6.656 10.688 8.704 4.416-2.368 6.848-4.48 6.848-8.896 0-4.8-3.264-7.808-8.768-7.808-5.504 0-8.768 3.008-8.768 8zm19.008 21.568c0-6.4-5.568-8-12.8-10.496-3.968 1.664-7.68 4.544-7.68 10.624 0 5.44 3.392 8.64 10.048 8.64 6.656 0 10.432-3.712 10.432-8.768zm56.28-3.584c.128 8.448 4.864 12.224 10.304 12.224 3.52 0 6.016-1.024 9.088-3.072l2.048 2.944c-3.072 2.368-7.232 3.776-10.944 3.776-9.28 0-14.784-6.976-14.784-17.408 0-10.24 5.696-17.472 14.144-17.472 8.192 0 13.056 6.272 13.056 16.32 0 1.152-.064 2.048-.064 2.688H229.32zm9.984-15.296c-5.44 0-9.472 3.84-9.92 11.776h19.072c-.192-7.936-3.84-11.776-9.152-11.776zm78.936 27.136v-40.576h-3.456l-12.8 7.936 1.792 2.88 10.368-6.208v35.968h-10.88V561h24.384v-3.392h-9.408zm33.228-41.088c9.536 0 13.824 6.272 13.824 16.768 0 19.392-6.592 24.064-22.4 28.864l-1.024-3.2c12.032-3.2 19.584-8.448 19.136-20.224l.064-2.24-.192 2.368c-1.6 2.816-5.312 5.632-10.432 5.76-7.424.064-12.672-5.184-12.672-14.016 0-9.472 6.144-14.08 13.696-14.08zm-.704 24.576c4.736-.064 7.936-2.88 10.368-7.104.192-10.752-3.264-13.952-9.6-13.952s-9.536 3.776-9.536 10.88c0 7.104 3.2 10.304 8.768 10.176zm91.864-24.064h-6.912l-7.488 30.592-7.808-30.592h-6.848L411.076 561h4.096l1.472-24.32c.32-5.056.32-14.272.256-15.744L425.668 553h4.864l8.128-32.064c.128 1.088.256 9.984.64 15.808L440.9 561h4.224l-2.496-43.968zm33.996 37.312c0 2.752.896 3.84 2.88 4.416l-1.088 2.944c-2.56-.384-4.736-1.792-5.504-4.864-2.368 3.136-5.952 4.8-10.368 4.8-6.72 0-10.688-4.032-10.688-10.304 0-6.848 5.44-10.624 15.552-10.624h5.056v-3.2c0-5.312-3.2-7.168-8.384-7.168-2.24 0-5.12.512-8.576 1.728l-1.216-3.264c4.096-1.472 7.232-2.048 10.368-2.048 7.872 0 11.968 4.224 11.968 10.56v17.024zm-13.376 4.16c3.712 0 7.04-1.92 9.216-5.12v-9.6h-5.568c-7.936 0-10.688 3.008-10.688 7.68s2.24 7.04 7.04 7.04zm40.652-46.272c-1.92 0-3.2 1.344-3.2 3.136 0 1.92 1.28 3.264 3.2 3.264 2.048 0 3.392-1.344 3.392-3.264 0-1.792-1.344-3.136-3.392-3.136zm3.776 15.168h-14.272v3.456h10.304v26.688h-10.624V561h24.32v-3.456h-9.728V527.4zm34.188-.64c9.216 0 13.824 6.848 13.824 17.408 0 10.048-4.736 17.472-13.888 17.472-9.216 0-13.888-7.04-13.888-17.408 0-10.24 4.736-17.472 13.952-17.472zm0 3.52c-6.272 0-9.6 4.48-9.6 13.952 0 9.344 3.2 13.888 9.536 13.888 6.336 0 9.536-4.544 9.536-13.952 0-9.408-3.2-13.888-9.472-13.888zM66.328 642.992l27.52-56.64 3.2 1.6L69.592 644.4l-3.264-1.408zm-17.536-43.264h4.224l-.128 13.184 12.48-4.096 1.28 3.84-12.544 4.032 7.808 10.624-3.328 2.432-7.68-10.816-7.68 10.816-3.328-2.432 7.808-10.624-12.544-4.032 1.28-3.84 12.48 4.096-.128-13.184zM774 484.495c-5.16-2.91-25.547-13.495-49.19-13.495-27.405 0-50.481 14.244-50.481 14.244S670 489.994 670 512.788c0 9.638.777 16.022 1.67 20.212 53.555-13.005 84.845-32.88 102.33-48.505"/><path d="M827.732 451.876l8.562-.005 4.76-23.871h-43.957l4.756 23.87 8.562-.474S791.102 521.305 656 548.51c0 0 23.92 103.94 153.57 106.491h12.712C957.018 652.45 979 548.751 979 548.751c-135.1-27.207-151.268-96.875-151.268-96.875m104.788-270.38c0-62.87-51.151-114.016-114.021-114.016S704.48 118.626 704.48 181.496c0 62.873 51.149 114.024 114.019 114.024 62.87 0 114.02-51.151 114.02-114.024zm5.48 0C938 247.391 884.391 301 818.499 301 752.606 301 699 247.391 699 181.496 699 115.604 752.606 62 818.499 62 884.39 62 938 115.604 938 181.496zm-29.546-49.18c.44 3.265.69 6.768.69 10.541 0 10.399-1.947 22.094-7.796 36.718l-31.311 90.528c30.477-17.769 50.973-50.787 50.973-88.607 0-17.822-4.554-34.578-12.556-49.18zm-88.154 58.15l-30.762 89.372a102.463 102.463 0 0 0 28.96 4.178c11.938 0 23.39-2.06 34.045-5.811a9.729 9.729 0 0 1-.736-1.412L820.3 190.465zm67.404-14.139c0-12.675-4.554-21.445-8.452-28.27-5.195-8.45-10.07-15.597-10.07-24.046 0-9.421 7.144-18.194 17.214-18.194.455 0 .885.056 1.328.084-18.237-16.713-42.537-26.915-69.225-26.915-35.815 0-67.32 18.377-85.65 46.205 2.406.077 4.673.123 6.596.123 10.721 0 27.322-1.303 27.322-1.303 5.524-.323 6.175 7.795.657 8.45 0 0-5.557.648-11.734.974l37.329 111.041 22.437-67.281-15.97-43.76a190.143 190.143 0 0 1-10.752-.975c-5.526-.328-4.877-8.772.649-8.45 0 0 16.926 1.304 26.999 1.304 10.719 0 27.325-1.303 27.325-1.303 5.526-.323 6.177 7.795.654 8.45 0 0-5.562.648-11.734.974l37.048 110.194 10.228-34.163c4.424-14.184 7.8-24.366 7.8-33.139zm-171.716 5.17c0 40.575 23.577 75.644 57.776 92.258l-48.9-133.978a102.104 102.104 0 0 0-8.876 41.72z"/><path d="M968.21 534c.942-4.194 1.79-10.782 1.79-20.967 0-22.927-4.294-27.703-4.294-27.703S942.816 471 915.633 471c-25.091 0-46.482 12.183-49.633 14.062 17.158 15.798 48.228 35.92 102.21 48.938m161.736-480.278l-11.99-.603c1.114 27.394 1.05 103.817-29.41 195.798-37.478 113.175-75.764 172.922-90.207 192.958-15.09-7.651-47.88-24.404-96.043-49.391-54.953-28.51-71.899-48.745-71.99-48.852l-9.711-12.99-10.188 12.896c-.163.2-17.144 20.436-72.097 48.946-48.16 24.984-81.029 41.737-96.12 49.391-14.455-20.057-52.894-79.801-90.367-192.958-30.87-93.225-30.848-170.513-29.68-196.917l-12.803.588c-1.213 28.43-.833 106.04 30.39 200.32C588.489 400.153 638.5 458 638.5 458s37.124-18.66 105.69-54.232c59.064-30.642 76.154-52.258 76.154-52.258s17.09 21.616 76.154 52.258C965.065 439.339 1002.19 458 1002.19 458s49.375-57.847 98.134-205.092c32.303-97.544 29.623-199.186 29.623-199.186M823.55 7V0h-12.747v7L510 20.909V40l311-14.318L1132 40V20.908z"/></g></svg>