<svg width="623" height="655" xmlns="http://www.w3.org/2000/svg"><g fill="none" fill-rule="evenodd"><path d="M265 484.495c-5.16-2.91-25.547-13.495-49.19-13.495-27.405 0-50.481 14.244-50.481 14.244S161 489.994 161 512.788c0 9.638.777 16.022 1.67 20.212 53.555-13.005 84.845-32.88 102.33-48.505" fill="#C90"/><path d="M318.732 451.876l8.562-.005 4.76-23.871h-43.957l4.756 23.87 8.562-.474S282.102 521.305 147 548.51c0 0 23.92 103.94 153.57 106.491h12.712C448.018 652.45 470 548.751 470 548.751c-135.1-27.207-151.268-96.875-151.268-96.875m104.788-270.38c0-62.87-51.151-114.016-114.021-114.016S195.48 118.626 195.48 181.496c0 62.873 51.149 114.024 114.019 114.024 62.87 0 114.02-51.151 114.02-114.024zm5.48 0C429 247.391 375.391 301 309.499 301 243.606 301 190 247.391 190 181.496 190 115.604 243.606 62 309.499 62 375.39 62 429 115.604 429 181.496zm-29.546-49.18c.44 3.265.69 6.768.69 10.541 0 10.399-1.947 22.094-7.796 36.718l-31.311 90.528c30.477-17.769 50.973-50.787 50.973-88.607 0-17.822-4.554-34.578-12.556-49.18zm-88.154 58.15l-30.762 89.372a102.463 102.463 0 0 0 28.96 4.178c11.938 0 23.39-2.06 34.045-5.811a9.729 9.729 0 0 1-.736-1.412L311.3 190.465zm67.404-14.139c0-12.675-4.554-21.445-8.452-28.27-5.195-8.45-10.07-15.597-10.07-24.046 0-9.421 7.144-18.194 17.214-18.194.455 0 .885.056 1.328.084-18.237-16.713-42.537-26.915-69.225-26.915-35.815 0-67.32 18.377-85.65 46.205 2.406.077 4.673.123 6.596.123 10.721 0 27.322-1.303 27.322-1.303 5.524-.323 6.175 7.795.657 8.45 0 0-5.557.648-11.734.974l37.329 111.041 22.437-67.281-15.97-43.76a190.127 190.127 0 0 1-10.752-.975c-5.526-.328-4.877-8.772.649-8.45 0 0 16.926 1.304 26.999 1.304 10.719 0 27.325-1.303 27.325-1.303 5.526-.323 6.177 7.795.654 8.45 0 0-5.562.648-11.734.974l37.048 110.194 10.228-34.163c4.424-14.184 7.8-24.366 7.8-33.139zm-171.716 5.17c0 40.575 23.577 75.644 57.776 92.258l-48.9-133.978a102.104 102.104 0 0 0-8.876 41.72z" fill="#037"/><path d="M459.21 534c.942-4.194 1.79-10.782 1.79-20.967 0-22.927-4.294-27.703-4.294-27.703S433.816 471 406.633 471c-25.091 0-46.482 12.183-49.633 14.062 17.158 15.798 48.228 35.92 102.21 48.938" fill="#C90"/><path d="M620.946 53.722l-11.99-.603c1.114 27.394 1.05 103.817-29.41 195.798-37.478 113.175-75.764 172.922-90.207 192.958-15.09-7.651-47.88-24.404-96.043-49.391-54.953-28.51-71.899-48.745-71.99-48.852l-9.711-12.99-10.188 12.896c-.163.2-17.144 20.436-72.097 48.946-48.16 24.984-81.029 41.737-96.12 49.391-14.455-20.057-52.894-79.801-90.367-192.958C11.953 155.692 11.975 78.404 13.143 52L.34 52.588c-1.213 28.43-.833 106.04 30.39 200.32C79.489 400.153 129.5 458 129.5 458s37.124-18.66 105.69-54.232c59.064-30.642 76.154-52.258 76.154-52.258s17.09 21.616 76.154 52.258C456.065 439.339 493.19 458 493.19 458s49.375-57.847 98.134-205.092c32.303-97.544 29.623-199.186 29.623-199.186" fill="#037"/><path fill="#C90" d="M314.55 7V0h-12.747v7L1 20.909V40l311-14.318L623 40V20.908z"/></g></svg>